<?xml version="1.0" encoding="UTF-8"?>
<svg width="10px" height="16px" viewBox="0 0 10 16" version="1.1" xmlns="http://www.w3.org/2000/svg" xmlns:xlink="http://www.w3.org/1999/xlink">
    <!-- Generator: Sketch 60 (88103) - https://sketch.com -->
    <title></title>
    <desc>Created with Sketch.</desc>
    <g id="Page-1" stroke="none" stroke-width="1" fill="none" fill-rule="evenodd">
        <g id="Scan" transform="translate(-24.000000, -64.000000)" fill="#FFFFFF" fill-rule="nonzero">
            <g id="Back" transform="translate(24.000000, 62.000000)">
                <path d="M8.6484375,17.984375 C8.79947917,17.984375 8.92708333,17.9322917 9.03125,17.828125 C9.13541667,17.7239583 9.1875,17.5989583 9.1875,17.453125 C9.1875,17.3072917 9.13541667,17.1822917 9.03125,17.078125 L9.03125,17.078125 L2,10.046875 L9.125,2.921875 C9.22916667,2.81770833 9.28125,2.69010417 9.28125,2.5390625 C9.28125,2.38802083 9.22916667,2.26041667 9.125,2.15625 C9.07291667,2.10416667 9.015625,2.06510417 8.953125,2.0390625 C8.890625,2.01302083 8.82291667,2 8.75,2 C8.6875,2 8.62239583,2.01302083 8.5546875,2.0390625 C8.48697917,2.06510417 8.42708333,2.10416667 8.375,2.15625 L8.375,2.15625 L0.859375,9.671875 C0.755208333,9.77604167 0.703125,9.90104167 0.703125,10.046875 C0.703125,10.1927083 0.755208333,10.3177083 0.859375,10.421875 L0.859375,10.421875 L8.265625,17.828125 C8.36979167,17.9322917 8.49739583,17.984375 8.6484375,17.984375 Z" id=""></path>
            </g>
        </g>
    </g>
</svg>