<?xml version="1.0" encoding="UTF-8"?>
<svg width="30px" height="31px" viewBox="0 0 30 31" version="1.1" xmlns="http://www.w3.org/2000/svg" xmlns:xlink="http://www.w3.org/1999/xlink">
    <!-- Generator: Sketch 60 (88103) - https://sketch.com -->
    <title>Tick</title>
    <desc>Created with Sketch.</desc>
    <g id="Page-1" stroke="none" stroke-width="1" fill="none" fill-rule="evenodd">
        <g id="QR-detected-" transform="translate(-176.000000, -338.000000)" fill="#00FF84" fill-rule="nonzero">
            <g id="Pop_UP" transform="translate(24.000000, 297.000000)">
                <path d="M167,71.875 C169.070312,71.875 171.018555,71.484375 172.844727,70.703125 C174.670898,69.921875 176.262695,68.8525391 177.620117,67.4951172 C178.977539,66.1376953 180.046875,64.5458984 180.828125,62.7197266 C181.609375,60.8935547 182,58.9453125 182,56.875 C182,54.8046875 181.609375,52.8564453 180.828125,51.0302734 C180.046875,49.2041016 178.977539,47.6123047 177.620117,46.2548828 C176.262695,44.8974609 174.670898,43.828125 172.844727,43.046875 C171.018555,42.265625 169.070312,41.875 167,41.875 C164.929688,41.875 162.981445,42.265625 161.155273,43.046875 C159.329102,43.828125 157.737305,44.8974609 156.379883,46.2548828 C155.022461,47.6123047 153.953125,49.2041016 153.171875,51.0302734 C152.390625,52.8564453 152,54.8046875 152,56.875 C152,58.9453125 152.390625,60.8935547 153.171875,62.7197266 C153.953125,64.5458984 155.022461,66.1376953 156.379883,67.4951172 C157.737305,68.8525391 159.329102,69.921875 161.155273,70.703125 C162.981445,71.484375 164.929688,71.875 167,71.875 Z M167,70.0292969 C165.183594,70.0292969 163.479492,69.6826172 161.887695,68.9892578 C160.295898,68.2958984 158.90918,67.3535156 157.727539,66.1621094 C156.545898,64.9707031 155.608398,63.5791016 154.915039,61.9873047 C154.22168,60.3955078 153.875,58.6914062 153.875,56.875 C153.875,55.0585938 154.22168,53.3544922 154.915039,51.7626953 C155.608398,50.1708984 156.545898,48.7841797 157.727539,47.6025391 C158.90918,46.4208984 160.295898,45.4833984 161.887695,44.7900391 C163.479492,44.0966797 165.183594,43.75 167,43.75 C168.816406,43.75 170.520508,44.0966797 172.112305,44.7900391 C173.704102,45.4833984 175.09082,46.4208984 176.272461,47.6025391 C177.454102,48.7841797 178.391602,50.1708984 179.084961,51.7626953 C179.77832,53.3544922 180.125,55.0585938 180.125,56.875 C180.125,58.6914062 179.77832,60.3955078 179.084961,61.9873047 C178.391602,63.5791016 177.454102,64.9707031 176.272461,66.1621094 C175.09082,67.3535156 173.704102,68.2958984 172.112305,68.9892578 C170.520508,69.6826172 168.816406,70.0292969 167,70.0292969 Z M164.202148,62.5292969 C164.46582,62.5292969 164.685547,62.4316406 164.861328,62.2363281 C164.880859,62.2167969 164.900391,62.1972656 164.919922,62.1777344 C164.939453,62.1582031 164.958984,62.1386719 164.978516,62.1191406 L174.324219,52.7148438 C174.5,52.5390625 174.587891,52.3193359 174.587891,52.0556641 C174.587891,51.7919922 174.5,51.5722656 174.324219,51.3964844 C174.128906,51.2011719 173.904297,51.1035156 173.650391,51.1035156 C173.396484,51.1035156 173.171875,51.2011719 172.976562,51.3964844 L164.1875,60.2441406 L160.232422,56.2890625 C160.037109,56.09375 159.8125,55.9960938 159.558594,55.9960938 C159.304688,55.9960938 159.080078,56.09375 158.884766,56.2890625 C158.708984,56.4648438 158.621094,56.6845703 158.621094,56.9482422 C158.621094,57.2119141 158.708984,57.4316406 158.884766,57.6074219 L163.542969,62.2363281 C163.71875,62.4316406 163.938477,62.5292969 164.202148,62.5292969 Z" id="Tick"></path>
            </g>
        </g>
    </g>
</svg>