<?xml version="1.0" encoding="UTF-8"?>
<svg width="30px" height="29px" viewBox="0 0 30 29" version="1.1" xmlns="http://www.w3.org/2000/svg" xmlns:xlink="http://www.w3.org/1999/xlink">
    <!-- Generator: Sketch 60 (88103) - https://sketch.com -->
    <title></title>
    <desc>Created with Sketch.</desc>
    <g id="Page-1" stroke="none" stroke-width="1" fill="none" fill-rule="evenodd">
        <g id="Bingo-notification" transform="translate(-172.000000, -296.000000)" fill="#1F40E6" fill-rule="nonzero">
            <g id="Group" transform="translate(24.000000, 256.000000)">
                <path d="M174.25,68.1835938 C174.777344,68.1835938 175.22168,67.9980469 175.583008,67.6269531 C175.944336,67.2558594 176.125,66.8164062 176.125,66.3085938 L176.125,54.0917969 L178,54.0917969 L178,48.4667969 C178,47.9589844 177.819336,47.5195312 177.458008,47.1484375 C177.09668,46.7773438 176.652344,46.5917969 176.125,46.5917969 L172.931641,46.5917969 C173.341797,46.2011719 173.668945,45.7373047 173.913086,45.2001953 C174.157227,44.6630859 174.279297,44.0625 174.279297,43.3984375 C174.279297,42.578125 174.015625,41.8066406 173.488281,41.0839844 C172.960938,40.3613281 172.042969,40 170.734375,40 C169.875,40 169.054688,40.2050781 168.273438,40.6152344 C167.492188,41.0253906 166.769531,41.5234375 166.105469,42.109375 C165.441406,42.6953125 164.850586,43.3154297 164.333008,43.9697266 C163.81543,44.6240234 163.390625,45.2148438 163.058594,45.7421875 C162.726562,45.2148438 162.296875,44.6240234 161.769531,43.9697266 C161.242188,43.3154297 160.641602,42.6953125 159.967773,42.109375 C159.293945,41.5234375 158.561523,41.0253906 157.770508,40.6152344 C156.979492,40.2050781 156.154297,40 155.294922,40 C153.986328,40 153.068359,40.3613281 152.541016,41.0839844 C152.013672,41.8066406 151.75,42.578125 151.75,43.3984375 C151.75,44.0625 151.87207,44.6630859 152.116211,45.2001953 C152.360352,45.7373047 152.697266,46.2109375 153.126953,46.6210938 L149.875,46.6210938 C149.347656,46.6210938 148.90332,46.8017578 148.541992,47.1630859 C148.180664,47.5244141 148,47.96875 148,48.4960938 L148,54.0917969 L149.904297,54.0917969 L149.904297,66.3085938 C149.904297,66.8164062 150.084961,67.2558594 150.446289,67.6269531 C150.807617,67.9980469 151.251953,68.1835938 151.779297,68.1835938 L174.25,68.1835938 Z M167.892578,46.5917969 L164.728516,46.5917969 C165.392578,45.6152344 166.266602,44.5849609 167.350586,43.5009766 C168.43457,42.4169922 169.5625,41.875 170.734375,41.875 C171.320312,41.875 171.745117,42.0019531 172.008789,42.2558594 C172.272461,42.5097656 172.404297,42.890625 172.404297,43.3984375 C172.404297,44.4335938 171.925781,45.2246094 170.96875,45.7714844 C170.011719,46.3183594 168.986328,46.5917969 167.892578,46.5917969 Z M161.388672,46.5917969 L158.224609,46.5917969 C157.130859,46.5917969 156.09082,46.3134766 155.104492,45.7568359 C154.118164,45.2001953 153.625,44.4042969 153.625,43.3691406 C153.625,42.8613281 153.756836,42.4853516 154.020508,42.2412109 C154.28418,41.9970703 154.708984,41.875 155.294922,41.875 C156.466797,41.875 157.609375,42.4169922 158.722656,43.5009766 C159.835938,44.5849609 160.724609,45.6152344 161.388672,46.5917969 Z M176.125,52.2167969 L163.9375,52.2167969 L163.9375,48.4667969 L176.125,48.4667969 L176.125,52.2167969 Z M162.0625,52.2167969 L149.875,52.2167969 L149.875,48.4667969 L162.0625,48.4667969 L162.0625,52.2167969 Z M162.0625,66.3085938 L151.779297,66.3085938 L151.779297,54.0917969 L162.0625,54.0917969 L162.0625,66.3085938 Z M174.25,66.3085938 L163.9375,66.3085938 L163.9375,54.0917969 L174.25,54.0917969 L174.25,66.3085938 Z" id=""></path>
            </g>
        </g>
    </g>
</svg>