<?xml version="1.0" encoding="UTF-8"?>
<svg width="21px" height="20px" viewBox="0 0 21 20" version="1.1" xmlns="http://www.w3.org/2000/svg" xmlns:xlink="http://www.w3.org/1999/xlink">
    <!-- Generator: Sketch 61 (89581) - https://sketch.com -->
    <title></title>
    <desc>Created with Sketch.</desc>
    <g id="Page-1" stroke="none" stroke-width="1" fill="none" fill-rule="evenodd">
        <g id="Your-card-Copy" transform="translate(-76.000000, -17.000000)" fill="#FFFFFF" fill-rule="nonzero">
            <path d="M86.425219,37.0011161 C86.4903268,37.0011161 86.5554346,36.9848392 86.6205424,36.9522853 C86.6856502,36.9197314 86.7442473,36.8709005 86.7963335,36.8057927 L96.3281154,23.836319 C96.4192663,23.6930818 96.474608,23.5172908 96.4941403,23.3089458 C96.5136726,23.1006009 96.4843741,22.918299 96.4062448,22.7620403 L93.6717172,17.5469055 C93.5935878,17.3906468 93.4633722,17.2604312 93.2810704,17.1562587 C93.0987685,17.0520862 92.9229775,17 92.7536972,17 L80.2529996,17 C80.0837193,17 79.9079283,17.0520862 79.7256264,17.1562587 C79.5433246,17.2604312 79.413109,17.3906468 79.3349796,17.5469055 L76.600452,22.6643786 C76.5223227,22.8206373 76.4897688,23.0029392 76.5027903,23.2112841 C76.5158119,23.4196291 76.5744089,23.5889094 76.6785814,23.719125 L86.0541046,36.8057927 C86.1061908,36.8709005 86.1647878,36.9197314 86.2298956,36.9522853 C86.2950034,36.9848392 86.3601112,37.0011161 86.425219,37.0011161 Z M90.5074781,21.824488 L87.7338858,18.2500698 L91.7575479,18.2500698 L90.5074781,21.824488 Z M82.6359451,22.0198114 L81.3858753,18.2500698 L85.272811,18.2500698 L82.6359451,22.0198114 Z M81.5226017,22.6253139 L78.0458452,22.6253139 L80.1748702,18.6016519 L81.5226017,22.6253139 Z M89.5503934,22.6253139 L83.7492885,22.6253139 L86.4838161,18.6797812 L89.5503934,22.6253139 Z M94.9022546,22.6253139 L91.5622245,22.6253139 L92.9099559,18.7774429 L94.9022546,22.6253139 Z M86.4447514,33.4852949 L83.2414476,23.8753837 L89.8043139,23.8753837 L86.4447514,33.4852949 Z M85.0384229,33.2313745 L78.319298,23.8753837 L81.9327808,23.8753837 L85.0384229,33.2313745 Z M87.8510799,33.2509069 L91.132513,23.8753837 L94.7459959,23.8753837 L87.8510799,33.2509069 Z" id=""></path>
        </g>
    </g>
</svg>